<?xml version="1.0" standalone="no"?>
<!DOCTYPE svg PUBLIC "-//W3C//DTD SVG 20010904//EN"
 "http://www.w3.org/TR/2001/REC-SVG-20010904/DTD/svg10.dtd">
<svg version="1.0" xmlns="http://www.w3.org/2000/svg"
 width="100.000000pt" height="100.000000pt" viewBox="0 0 100.000000 100.000000"
 preserveAspectRatio="xMidYMid meet">
<metadata>
Created by potrace 1.11, written by Peter Selinger 2001-2013
</metadata>
<g transform="translate(0.000000,100.000000) scale(0.100000,-0.100000)"
fill="#000000" stroke="none">
<path d="M445 881 c-87 -15 -149 -72 -206 -189 l-32 -67 -1 -202 c-1 -112 -4
-203 -8 -203 -3 0 -18 -23 -32 -52 -20 -41 -26 -65 -24 -112 l1 -61 6 60 c6
64 39 136 75 167 31 27 109 64 150 72 34 6 35 5 41 -28 4 -19 21 -48 41 -67
33 -32 34 -35 34 -116 0 -49 4 -83 10 -83 6 0 10 34 10 81 0 73 3 85 29 122
16 23 32 57 36 74 7 37 35 44 69 18 11 -8 25 -15 30 -15 21 0 -55 40 -77 41
-14 0 -17 2 -7 6 8 3 27 17 43 31 26 25 27 28 27 139 l0 113 -155 0 -155 0 0
-115 c0 -102 2 -117 20 -135 11 -11 25 -20 30 -20 6 0 10 -6 10 -14 0 -8 -15
-17 -36 -20 -19 -4 -42 -10 -50 -13 -13 -5 -15 20 -12 193 3 195 4 200 29 236
42 62 72 79 144 85 59 5 70 2 105 -21 21 -14 54 -47 72 -73 l33 -48 2 -200 c2
-152 6 -201 15 -204 50 -15 125 -138 131 -213 l3 -53 2 54 c2 45 -4 64 -33
117 l-35 62 0 201 0 202 -40 76 c-78 151 -157 197 -295 174z m205 -384 c0 -94
-2 -105 -22 -124 -64 -59 -167 -67 -232 -18 l-36 27 0 109 0 109 145 0 145 0
0 -103z m-130 -188 l52 8 -7 -36 c-7 -41 -44 -101 -62 -101 -28 0 -73 55 -79
98 -7 42 -7 42 19 33 15 -6 47 -7 77 -2z"/>
<path d="M393 544 c-8 -21 13 -42 28 -27 13 13 5 43 -11 43 -6 0 -13 -7 -17
-16z"/>
<path d="M563 544 c-8 -21 13 -42 28 -27 13 13 5 43 -11 43 -6 0 -13 -7 -17
-16z"/>
<path d="M440 397 c0 -21 22 -37 50 -37 28 0 50 16 50 37 0 9 -16 13 -50 13
-34 0 -50 -4 -50 -13z m88 -9 c-3 -7 -20 -13 -38 -13 -18 0 -35 6 -37 13 -3 8
8 12 37 12 29 0 40 -4 38 -12z"/>
<path d="M250 25 c0 -14 5 -25 10 -25 6 0 10 11 10 25 0 14 -4 25 -10 25 -5 0
-10 -11 -10 -25z"/>
<path d="M720 25 c0 -14 5 -25 10 -25 6 0 10 11 10 25 0 14 -4 25 -10 25 -5 0
-10 -11 -10 -25z"/>
</g>
</svg>
